<svg width="26" height="19" viewBox="0 0 26 19" fill="none" xmlns="http://www.w3.org/2000/svg">
<path d="M24.375 3.375V15.625C24.375 16.3212 24.0984 16.9889 23.6062 17.4812C23.1139 17.9734 22.4462 18.25 21.75 18.25H4.25C3.55381 18.25 2.88613 17.9734 2.39384 17.4812C1.90156 16.9889 1.625 16.3212 1.625 15.625V3.375M24.375 3.375C24.375 2.67881 24.0984 2.01113 23.6062 1.51884C23.1139 1.02656 22.4462 0.75 21.75 0.75H4.25C3.55381 0.75 2.88613 1.02656 2.39384 1.51884C1.90156 2.01113 1.625 2.67881 1.625 3.375M24.375 3.375V3.6585C24.375 4.10667 24.2604 4.54739 24.0418 4.93868C23.8233 5.32997 23.5083 5.65879 23.1267 5.89383L14.3767 11.278C13.9627 11.533 13.4861 11.668 13 11.668C12.5139 11.668 12.0373 11.533 11.6233 11.278L2.87333 5.895C2.49174 5.65996 2.17668 5.33113 1.95816 4.93985C1.73965 4.54856 1.62495 4.10784 1.625 3.65967V3.375" stroke="white" stroke-width="1.5" stroke-linecap="round" stroke-linejoin="round"/>
</svg>
